<svg width="30" height="30" viewBox="0 0 30 30" fill="none" xmlns="http://www.w3.org/2000/svg">
<rect width="30" height="30" fill="white"/>
<path d="M11.25 10.6635V9.1635C11.25 7.0215 12.9225 5.274 15 5.274C17.0775 5.274 18.75 7.0215 18.75 9.1635V10.6635H21.342C21.4607 10.6636 21.575 10.7087 21.6619 10.7897C21.7487 10.8707 21.8016 10.9815 21.81 11.1L22.701 24.225C22.7088 24.349 22.6674 24.4711 22.5856 24.5646C22.5038 24.6582 22.3884 24.7156 22.2645 24.7245H7.767C7.64287 24.7245 7.52384 24.6752 7.43607 24.5874C7.3483 24.4997 7.299 24.3806 7.299 24.2565V24.225L8.19 11.1C8.19798 10.9813 8.25074 10.87 8.33762 10.7887C8.4245 10.7074 8.53901 10.6621 8.658 10.662L11.25 10.6635ZM12.657 10.6635H17.3445V9.1635C17.3445 7.785 16.2945 6.6795 15 6.6795C13.7055 6.6795 12.657 7.785 12.657 9.1635V10.6635ZM8.7705 23.3205H21.2295L20.4675 12.0705H9.534L8.7705 23.3205Z" fill="black"/>
</svg>
